<svg xmlns="http://www.w3.org/2000/svg" width="875.375" height="979.505" viewBox="0 0 875.375 979.505">
  <defs>
    <style>
      .cls-1 {
        fill: #06ffaa;
        fill-rule: evenodd;
      }
    </style>
  </defs>
  <path id="Ellipse_1_copy_3" data-name="Ellipse 1 copy 3" class="cls-1" d="M851.747,666.18a125.542,125.542,0,0,1-121.557-94.2l-44.819.2C676.38,694.9,573.968,791.683,448.944,791.683a236.23,236.23,0,0,1-95.566-20.068l-30.215,51.741a125.148,125.148,0,1,1-49.62-35.681l27.778-47.568a237.082,237.082,0,0,1,5.487-375.255L278.4,306.361a129.384,129.384,0,1,1,55.065-25.891l26.414,54.379a236.382,236.382,0,0,1,89.068-17.317c116.157,0,212.79,83.541,233.125,193.814l47.7-.208A125.5,125.5,0,1,1,851.747,666.18ZM519.764,383.606q-31.281-12.441-69.289-12.441a178.6,178.6,0,0,0-68.77,14,191.742,191.742,0,0,0-60.131,39.223,185.4,185.4,0,0,0-42.333,204.929q14.336,33.872,42.333,61.858,26.607,26.266,58.576,39.742a175.873,175.873,0,0,0,136.677-.691q32.478-14.166,64.623-43.889l-43.2-45.271q-20.735,20.4-42.16,29.893a112.873,112.873,0,0,1-46.308,9.5q-47.69,0-81.556-35.94t-33.867-87.777q0-52.874,34.212-88.123t85.358-35.249a111.476,111.476,0,0,1,81.211,34.213l41.124-45.962Q551.036,396.049,519.764,383.606ZM624.472,484.861a180.823,180.823,0,0,0-28.262-45.62l-46.064,47.907q19.374,29.807,19.379,69.593,0,35.175-15.609,63.024l46.054,51.368a187.068,187.068,0,0,0,24.675-41.82A187.989,187.989,0,0,0,624.472,484.861Z" transform="translate(-101.875 -50.375)"/>
</svg>
